# xmcd
#
# Track frame offsets: 
#        150
#        13740
#        28278
#        40149
#        55547
#        67430
#        81666
#        96266
#        110507
#        126379
#        140229
#        154370
#        171805
#        185518
#        206396
#        223559
#        236598
#        249902
#        265452
#
# Disc length: 3713 seconds
#
# Revision: 0
# Processed by: cddbd v1.5.2PL0 Copyright (c) Steve Scherf et al.
# Submitted via: ExactAudioCopy v1.1
#
DISCID=260e7f13
DTITLE=Various Artist - Old Uncle Dave's Stack of 78's Sorrowful Songs
DYEAR=1900
DGENRE=Blues
TTITLE0=Bob Thomas - Floyd Collin's Fate
TTITLE1=Ernest Hare - New Twenty One Years
TTITLE2=Bob Thomas - The Pickwick Club Tragedy
TTITLE3=Bill Boyd - Tell Me Why My Daddy Don't Come Home
TTITLE4=Al Craver - Little Marian Parker
TTITLE5=Vernon Dalhart - A Boyd's Best Friend Is His Mother
TTITLE6=Bud Billings - The SInking of The Vestris
TTITLE7=Vernon Dalhart - The Prison Clock
TTITLE8=Vernon Dalhart - Flood Song
TTITLE9=Vernon Dalhart - The Prisoner's Song
TTITLE10=Al Craver - Sinking of the Submarine S-51
TTITLE11=Vernon Dalhart - The Drunkard's Lone Child
TTITLE12=Al Craver - Little Mary Phagan
TTITLE13=Vernon Dalhart - In The Baggage Ahead
TTITLE14=Vernon Dalhart - The Wreck Of The Soughern Old 97
TTITLE15=Farnk Luther - The Baby On The Doorstep
TTITLE16=Frank Luther - Jesse James
TTITLE17=Vernon Dalhart - The Letter Edged In Black
TTITLE18=Vernon Dalhart - The Airship That Never Returned
EXTD=
EXTT0=
EXTT1=
EXTT2=
EXTT3=
EXTT4=
EXTT5=
EXTT6=
EXTT7=
EXTT8=
EXTT9=
EXTT10=
EXTT11=
EXTT12=
EXTT13=
EXTT14=
EXTT15=
EXTT16=
EXTT17=
EXTT18=
PLAYORDER=
